# xmcd CD database file
#
# Track frame offsets:
#	150
#	12787
#	25765
#	38235
#	52487
#	65832
#	80807
#	93505
#	105950
#	119317
#	132740
#	146672
#	158897
#	172687
#	184122
#	196752
#	209417
#	221865
#	234260
#	245690
#	258470
#	272537
#
# Disc length: 3802 seconds
#
# Revision: 2
# Processed by: cddbd v1.5.2PL0 Copyright (c) Steve Scherf et al.
# Submitted via: CDex 1.51
#
DISCID=440ed816
DTITLE=Jimmy Rogers - His Best
DYEAR=2003
DGENRE=Blues
TTITLE0=That's All Right
TTITLE1=Luedella
TTITLE2=Goin' Away Baby
TTITLE3=Today, Today Blues
TTITLE4=The World's In A Tangle
TTITLE5=Money, Marbles And Chalk
TTITLE6=Crying Shame
TTITLE7=The Last Time
TTITLE8=Left Me With A Broken Heart
TTITLE9=Act Like You Love Me
TTITLE10=Blues All Day Long (Blues Leave Me Alone)
TTITLE11=Chicago Bound
TTITLE12=Sloppy Drunk
TTITLE13=You're The One
TTITLE14=Walking By Myself
TTITLE15=I Can't Believe
TTITLE16=One Kiss
TTITLE17=What Have I Done
TTITLE18=Don't You Know My Baby
TTITLE19=Looka Here
TTITLE20=My Last Meal
TTITLE21=Rock This House
EXTD=YEAR: 2003
EXTT0=
EXTT1=
EXTT2=
EXTT3=
EXTT4=
EXTT5=
EXTT6=
EXTT7=
EXTT8=
EXTT9=
EXTT10=
EXTT11=
EXTT12=
EXTT13=
EXTT14=
EXTT15=
EXTT16=
EXTT17=
EXTT18=
EXTT19=
EXTT20=
EXTT21=
PLAYORDER=
